<?xml version="1.0" encoding="utf-8"?>
<svg viewBox="-668 325.5 250 250" xmlns="http://www.w3.org/2000/svg">
  <path d="M-668 325.5h250v250h-250v-250z" style=""/>
  <path d="M -466.345 492.666 C -471.922 494.084 -475.371 492.728 -478.466 488.081 L -500.476 457.629 L -503.657 453.413 L -529.361 488.181 C -532.297 492.364 -535.378 494.184 -540.859 492.704 L -507.945 448.522 L -538.588 408.613 C -533.318 407.588 -529.677 408.11 -526.443 412.829 L -503.614 443.659 L -480.617 412.997 C -477.671 408.814 -474.504 407.223 -469.215 408.766 L -481.096 424.519 L -497.194 445.479 C -499.11 447.875 -498.847 449.513 -497.084 451.827 L -466.345 492.666 Z M -619.618 447.784 L -616.925 434.542 C -609.595 408.335 -579.556 397.445 -558.839 413.639 C -546.733 423.163 -543.724 436.635 -544.323 451.727 L -612.565 451.727 C -613.591 478.892 -594.039 495.286 -569.111 486.921 C -560.368 483.984 -555.217 477.138 -552.64 468.572 C -551.332 464.279 -549.166 463.608 -545.132 464.835 C -547.193 475.547 -551.84 484.497 -561.661 490.098 C -576.336 498.482 -597.282 495.77 -608.301 484.119 C -614.865 477.358 -617.577 468.792 -618.794 459.632 C -618.985 458.118 -619.369 456.676 -619.656 455.224 C -619.63 452.746 -619.618 450.267 -619.618 447.789 Z M -612.441 445.963 L -550.771 445.963 C -551.174 426.32 -563.405 412.369 -580.121 412.249 C -598.47 412.105 -611.645 425.726 -612.441 445.963 Z" style="fill: rgb(255, 255, 255);"/>
</svg>