<?xml version="1.0" encoding="utf-8"?>
<svg viewBox="-668 325.5 250 250" xmlns="http://www.w3.org/2000/svg">
  <path d="M-668 325.5h250v250h-250v-250z" style="fill: rgb(255, 255, 255);"/>
  <path d="M -525.32 428.774 L -540.966 443.331 L -555.483 414.047 L -547.97 397.204 C -546.016 393.785 -542.968 393.824 -541.063 397.204 Z" fill="#ffa000" style=""/>
  <path d="M -555.483 414.047 L -540.966 443.331 L -599.435 497.722 Z" fill="#f57f17" style=""/>
  <path d="M -508.209 406.524 C -505.415 403.838 -502.523 404.756 -501.785 408.561 L -486.565 496.999 L -537.014 527.284 C -538.772 528.261 -543.462 528.681 -543.462 528.681 C -543.462 528.681 -547.731 528.173 -549.357 527.216 L -599.435 497.722 Z" fill="#ffca28" style=""/>
  <path d="M -555.483 414.047 L -599.431 497.722 L -579.858 375.433 C -579.135 371.623 -576.966 371.257 -575.031 374.618 Z" fill="#ffa000" style=""/>
</svg>