<?xml version="1.0" encoding="utf-8"?>
<svg viewBox="-668 325.5 250 250" xmlns="http://www.w3.org/2000/svg">
  <path d="M-668 325.5h250v250h-250v-250z" style="fill: rgb(255, 255, 255);"/>
  <path d="M -519.129 419.015 L -513.522 419.111 L -498.289 403.876 L -497.55 397.422 C -509.633 386.657 -525.587 380.101 -543.019 380.101 C -574.58 380.101 -601.219 401.577 -609.104 430.665 C -607.441 429.506 -603.886 430.375 -603.886 430.375 L -573.446 425.371 C -573.446 425.371 -571.881 422.781 -571.089 422.909 C -563.891 415.002 -553.693 410.496 -543 410.5 C -533.974 410.52 -525.661 413.709 -519.129 418.984 Z" fill="#ea4335" style=""/>
  <path d="M -476.896 430.726 C -480.432 417.68 -487.721 406.16 -497.559 397.422 L -519.129 418.993 C -510.486 425.967 -504.943 436.639 -504.943 448.585 L -504.943 452.392 C -494.448 452.392 -485.924 460.936 -485.924 471.411 C -485.924 481.906 -494.468 490.43 -504.943 490.43 L -542.981 490.43 L -546.788 494.259 L -546.788 517.086 L -542.981 520.873 L -504.943 520.873 C -477.642 520.835 -455.52 498.714 -455.481 471.414 C -455.5 454.58 -463.959 439.688 -476.896 430.728 Z" fill="#4285f4" style=""/>
  <path d="M -581.057 520.898 L -543.041 520.898 L -543.041 490.43 L -581.057 490.43 C -583.758 490.431 -586.427 489.85 -588.885 488.729 L -594.374 490.411 L -609.608 505.645 L -610.942 510.787 C -602.357 517.336 -591.857 520.881 -581.06 520.876 Z" fill="#34a853" style=""/>
  <path d="M -581.057 421.974 C -608.358 422.011 -630.48 444.133 -630.519 471.433 C -630.519 487.496 -622.826 501.777 -610.92 510.825 L -588.865 488.77 C -595.684 485.696 -600.07 478.913 -600.076 471.433 C -600.076 460.939 -591.532 452.414 -581.057 452.414 C -573.345 452.414 -566.715 457.064 -563.717 463.628 L -541.662 441.573 C -550.707 429.667 -564.992 421.974 -581.054 421.974 Z" fill="#fbbc05" style=""/>
</svg>