<?xml version="1.0" encoding="utf-8"?>
<svg viewBox="-668 325.5 250 250" xmlns="http://www.w3.org/2000/svg">
  <path d="M-668 325.5h250v250h-250v-250z" style="fill: rgb(255, 255, 255);"/>
  <path d="M -524.868 501.422 C -525.68 501.424 -526.433 500.999 -526.849 500.302 L -544.281 471.225 L -576.885 480.087 C -577.906 480.333 -578.963 479.858 -579.457 478.93 L -617.555 407.321 C -618.315 405.904 -617.427 404.164 -615.832 403.949 L -583.486 399.599 C -582.571 399.473 -581.671 399.903 -581.197 400.694 L -542.146 465.863 L -496.769 453.524 L -511.898 432.151 C -512.847 430.84 -512.178 428.983 -510.612 428.574 L -489.38 423.556 C -488.514 423.35 -487.607 423.661 -487.051 424.353 L -468.678 447.269 C -467.638 448.564 -468.269 450.503 -469.876 450.935 L -489.174 456.196 L -472.282 480.001 C -471.391 481.252 -471.95 483.01 -473.402 483.513 L -524.132 501.256 C -524.368 501.343 -524.616 501.392 -524.866 501.399 Z M -539.665 469.964 L -523.865 496.313 L -477.819 480.192 L -493.902 457.522 Z M -611.936 408.041 L -576.284 475.151 L -546.692 467.123 L -584.377 404.377 Z M -506.127 432.28 L -491.975 452.235 L -474.374 447.449 L -489.686 428.382 Z" fill="#ef533f" style=""/>
</svg>