<?xml version="1.0" encoding="utf-8"?>
<svg viewBox="-668 325.5 250 250" xmlns="http://www.w3.org/2000/svg">
  <path d="M-668 325.5h250v250h-250v-250z" style="fill: rgb(255, 255, 255);"/>
  <path d="M -543.586 357.29 L -538.584 366.685 C -537.46 368.419 -536.242 369.953 -534.807 371.382 C -530.619 375.57 -526.642 379.957 -523.069 384.655 C -514.594 395.783 -508.877 408.142 -504.795 421.508 C -502.346 429.673 -501.017 438.048 -500.917 446.518 C -500.507 471.838 -509.187 493.58 -526.689 511.649 C -529.547 514.508 -532.604 517.155 -535.884 519.51 C -537.618 519.51 -538.438 518.18 -539.153 516.956 C -540.482 514.713 -541.296 512.153 -541.706 509.605 C -542.321 506.542 -542.725 503.479 -542.526 500.316 L -542.526 498.887 C -542.667 498.582 -544.196 358.011 -543.586 357.29 Z" fill="#599636" style=""/>
  <path d="M -543.586 356.98 C -543.791 356.57 -543.996 356.88 -544.201 357.079 C -544.102 359.129 -544.816 360.957 -545.935 362.702 C -547.165 364.436 -548.793 365.765 -550.428 367.195 C -559.506 375.055 -566.652 384.549 -572.374 395.168 C -579.989 409.46 -583.913 424.776 -585.026 440.901 C -585.535 446.717 -583.187 467.24 -581.353 473.162 C -576.351 488.883 -567.366 502.055 -555.728 513.489 C -552.87 516.241 -549.813 518.795 -546.65 521.249 C -545.73 521.249 -545.631 520.429 -545.42 519.82 C -545.017 518.517 -544.709 517.185 -544.5 515.837 L -542.45 500.527 L -543.586 356.98 Z" fill="#6cac48" style=""/>
  <path d="M -538.584 525.73 C -538.379 523.387 -537.255 521.443 -536.031 519.504 C -537.261 518.994 -538.174 517.981 -538.889 516.851 C -539.504 515.831 -540.014 514.607 -540.412 513.483 C -541.841 509.195 -542.146 504.697 -542.556 500.316 L -542.556 497.662 C -543.065 498.072 -543.171 501.54 -543.171 502.055 C -543.469 506.686 -544.083 511.291 -545.01 515.837 C -545.314 517.676 -545.519 519.51 -546.65 521.144 C -546.65 521.349 -546.65 521.554 -546.55 521.858 C -544.711 527.27 -544.207 532.782 -543.897 538.399 L -543.897 540.449 C -543.897 542.897 -543.996 542.382 -541.964 543.202 C -541.144 543.506 -540.23 543.612 -539.41 544.221 C -538.795 544.221 -538.696 543.711 -538.696 543.301 L -539 539.934 L -539 530.539 C -539.1 528.899 -538.795 527.27 -538.59 525.736 Z" fill="#c2bfbf" style=""/>
</svg>