<?xml version="1.0" encoding="utf-8"?>
<svg viewBox="-668 325.5 250 250" xmlns="http://www.w3.org/2000/svg">
  <path d="M -668 325.932 L -418 325.932 L -418 575.932 L -668 575.932 L -668 325.932 Z" style="fill: rgb(19, 19, 19);"/>
  <path d="M -463.674 448.751 C -464.105 422.221 -478.898 396.39 -501.784 382.787 C -519.814 371.558 -542.591 368.535 -563.106 373.717 C -593.983 381.49 -618.599 409.454 -621.728 441.325 C -625.616 471.426 -610.392 502.732 -584.375 518.169 C -558.896 534.147 -524.24 533.499 -499.329 516.681 C -476.872 502.107 -462.945 475.522 -463.699 448.773 Z M -538.599 518.065 C -574.658 521.628 -609.529 491.076 -610.503 454.908 C -613.231 425.543 -593.879 396.501 -566.24 386.784 C -527.481 371.238 -479.87 399.955 -475.876 441.523 C -469.612 478.874 -500.705 516.899 -538.599 518.065 Z M -562.327 446.482 L -510.184 403.835 L -538.361 446.589 C -546.35 446.589 -554.338 446.589 -562.327 446.48 Z M -547.666 454.367 L -523.7 454.476 L -575.843 497.23 L -547.666 454.367 Z" style="fill: rgb(255, 255, 255);"/>
</svg>